<mxfile host="app.diagrams.net" agent="Mozilla/5.0 (Windows NT 10.0; Win64; x64) AppleWebKit/537.36 (KHTML, like Gecko) Chrome/127.0.0.0 Safari/537.36" version="26.1.1">
  <diagram id="a45cf8ec-cd66-6f27-3ac3-be6e809c9e4a" name="Page-1">
    <mxGraphModel dx="1674" dy="1907" grid="1" gridSize="10" guides="1" tooltips="1" connect="1" arrows="1" fold="1" page="1" pageScale="1" pageWidth="827" pageHeight="1169" background="none" math="0" shadow="0">
      <root>
        <mxCell id="0" />
        <mxCell id="1" parent="0" />
        <mxCell id="171" style="edgeStyle=orthogonalEdgeStyle;rounded=0;jumpStyle=none;html=1;exitX=0;exitY=0.5;entryX=0;entryY=0.5;shadow=0;labelBackgroundColor=none;startArrow=none;startFill=0;endArrow=classic;endFill=1;endSize=6;jettySize=auto;orthogonalLoop=1;strokeColor=#23445D;strokeWidth=2;fillColor=#F08705;fontFamily=Helvetica;fontSize=14;fontColor=#F08705;align=left;fontStyle=0" parent="1" edge="1">
          <mxGeometry relative="1" as="geometry">
            <mxPoint x="137" y="37.5" as="sourcePoint" />
            <mxPoint x="137" y="37.5" as="targetPoint" />
          </mxGeometry>
        </mxCell>
        <mxCell id="3iOCTII06yZ_4ir-GyjH-172" value="" style="image;html=1;image=img/lib/clip_art/networking/Switch_128x128.png" vertex="1" parent="1">
          <mxGeometry x="418" y="-670" width="162" height="200" as="geometry" />
        </mxCell>
        <mxCell id="3iOCTII06yZ_4ir-GyjH-176" value="" style="image;html=1;image=img/lib/clip_art/networking/Firewall_128x128.png" vertex="1" parent="1">
          <mxGeometry x="414" y="-1010" width="170" height="130" as="geometry" />
        </mxCell>
        <mxCell id="3iOCTII06yZ_4ir-GyjH-182" value="Cisco Firewall" style="swimlane;fontStyle=0;childLayout=stackLayout;horizontal=1;startSize=30;horizontalStack=0;resizeParent=1;resizeParentMax=0;resizeLast=0;collapsible=1;marginBottom=0;whiteSpace=wrap;html=1;" vertex="1" parent="1">
          <mxGeometry x="640" y="-1005" width="215" height="120" as="geometry" />
        </mxCell>
        <mxCell id="3iOCTII06yZ_4ir-GyjH-183" value="Item 1" style="text;strokeColor=none;fillColor=none;align=left;verticalAlign=middle;spacingLeft=4;spacingRight=4;overflow=hidden;points=[[0,0.5],[1,0.5]];portConstraint=eastwest;rotatable=0;whiteSpace=wrap;html=1;" vertex="1" parent="3iOCTII06yZ_4ir-GyjH-182">
          <mxGeometry y="30" width="215" height="30" as="geometry" />
        </mxCell>
        <mxCell id="3iOCTII06yZ_4ir-GyjH-184" value="Item 2" style="text;strokeColor=none;fillColor=none;align=left;verticalAlign=middle;spacingLeft=4;spacingRight=4;overflow=hidden;points=[[0,0.5],[1,0.5]];portConstraint=eastwest;rotatable=0;whiteSpace=wrap;html=1;" vertex="1" parent="3iOCTII06yZ_4ir-GyjH-182">
          <mxGeometry y="60" width="215" height="30" as="geometry" />
        </mxCell>
        <mxCell id="3iOCTII06yZ_4ir-GyjH-185" value="Item 3" style="text;strokeColor=none;fillColor=none;align=left;verticalAlign=middle;spacingLeft=4;spacingRight=4;overflow=hidden;points=[[0,0.5],[1,0.5]];portConstraint=eastwest;rotatable=0;whiteSpace=wrap;html=1;" vertex="1" parent="3iOCTII06yZ_4ir-GyjH-182">
          <mxGeometry y="90" width="215" height="30" as="geometry" />
        </mxCell>
        <mxCell id="3iOCTII06yZ_4ir-GyjH-230" value="Switch DMZ1" style="swimlane;fontStyle=0;childLayout=stackLayout;horizontal=1;startSize=30;horizontalStack=0;resizeParent=1;resizeParentMax=0;resizeLast=0;collapsible=1;marginBottom=0;whiteSpace=wrap;html=1;" vertex="1" parent="1">
          <mxGeometry x="640" y="-630" width="215" height="120" as="geometry" />
        </mxCell>
        <mxCell id="3iOCTII06yZ_4ir-GyjH-231" value="Dell PowerConnect 2824" style="text;strokeColor=none;fillColor=none;align=left;verticalAlign=middle;spacingLeft=4;spacingRight=4;overflow=hidden;points=[[0,0.5],[1,0.5]];portConstraint=eastwest;rotatable=0;whiteSpace=wrap;html=1;" vertex="1" parent="3iOCTII06yZ_4ir-GyjH-230">
          <mxGeometry y="30" width="215" height="30" as="geometry" />
        </mxCell>
        <mxCell id="3iOCTII06yZ_4ir-GyjH-232" value="Item 2" style="text;strokeColor=none;fillColor=none;align=left;verticalAlign=middle;spacingLeft=4;spacingRight=4;overflow=hidden;points=[[0,0.5],[1,0.5]];portConstraint=eastwest;rotatable=0;whiteSpace=wrap;html=1;" vertex="1" parent="3iOCTII06yZ_4ir-GyjH-230">
          <mxGeometry y="60" width="215" height="30" as="geometry" />
        </mxCell>
        <mxCell id="3iOCTII06yZ_4ir-GyjH-233" value="Item 3" style="text;strokeColor=none;fillColor=none;align=left;verticalAlign=middle;spacingLeft=4;spacingRight=4;overflow=hidden;points=[[0,0.5],[1,0.5]];portConstraint=eastwest;rotatable=0;whiteSpace=wrap;html=1;" vertex="1" parent="3iOCTII06yZ_4ir-GyjH-230">
          <mxGeometry y="90" width="215" height="30" as="geometry" />
        </mxCell>
        <mxCell id="3iOCTII06yZ_4ir-GyjH-234" value="" style="image;html=1;image=img/lib/clip_art/networking/Router_128x128.png" vertex="1" parent="1">
          <mxGeometry x="430" y="-820" width="150" height="160" as="geometry" />
        </mxCell>
        <mxCell id="3iOCTII06yZ_4ir-GyjH-235" value="Rogers Router" style="swimlane;fontStyle=0;childLayout=stackLayout;horizontal=1;startSize=30;horizontalStack=0;resizeParent=1;resizeParentMax=0;resizeLast=0;collapsible=1;marginBottom=0;whiteSpace=wrap;html=1;" vertex="1" parent="1">
          <mxGeometry x="640" y="-800" width="215" height="120" as="geometry" />
        </mxCell>
        <mxCell id="3iOCTII06yZ_4ir-GyjH-236" value="Provides Fiber Internet" style="text;strokeColor=none;fillColor=none;align=left;verticalAlign=middle;spacingLeft=4;spacingRight=4;overflow=hidden;points=[[0,0.5],[1,0.5]];portConstraint=eastwest;rotatable=0;whiteSpace=wrap;html=1;" vertex="1" parent="3iOCTII06yZ_4ir-GyjH-235">
          <mxGeometry y="30" width="215" height="30" as="geometry" />
        </mxCell>
        <mxCell id="3iOCTII06yZ_4ir-GyjH-237" value="Item 2" style="text;strokeColor=none;fillColor=none;align=left;verticalAlign=middle;spacingLeft=4;spacingRight=4;overflow=hidden;points=[[0,0.5],[1,0.5]];portConstraint=eastwest;rotatable=0;whiteSpace=wrap;html=1;" vertex="1" parent="3iOCTII06yZ_4ir-GyjH-235">
          <mxGeometry y="60" width="215" height="30" as="geometry" />
        </mxCell>
        <mxCell id="3iOCTII06yZ_4ir-GyjH-238" value="Item 3" style="text;strokeColor=none;fillColor=none;align=left;verticalAlign=middle;spacingLeft=4;spacingRight=4;overflow=hidden;points=[[0,0.5],[1,0.5]];portConstraint=eastwest;rotatable=0;whiteSpace=wrap;html=1;" vertex="1" parent="3iOCTII06yZ_4ir-GyjH-235">
          <mxGeometry y="90" width="215" height="30" as="geometry" />
        </mxCell>
        <mxCell id="3iOCTII06yZ_4ir-GyjH-239" value="" style="image;html=1;image=img/lib/clip_art/networking/Switch_128x128.png" vertex="1" parent="1">
          <mxGeometry x="414" y="-460" width="165" height="140" as="geometry" />
        </mxCell>
        <mxCell id="3iOCTII06yZ_4ir-GyjH-240" value="Newt Switch&amp;nbsp;" style="swimlane;fontStyle=0;childLayout=stackLayout;horizontal=1;startSize=30;horizontalStack=0;resizeParent=1;resizeParentMax=0;resizeLast=0;collapsible=1;marginBottom=0;whiteSpace=wrap;html=1;" vertex="1" parent="1">
          <mxGeometry x="640" y="-440" width="215" height="90" as="geometry" />
        </mxCell>
        <mxCell id="3iOCTII06yZ_4ir-GyjH-242" value="Cisco" style="text;strokeColor=none;fillColor=none;align=left;verticalAlign=middle;spacingLeft=4;spacingRight=4;overflow=hidden;points=[[0,0.5],[1,0.5]];portConstraint=eastwest;rotatable=0;whiteSpace=wrap;html=1;" vertex="1" parent="3iOCTII06yZ_4ir-GyjH-240">
          <mxGeometry y="30" width="215" height="30" as="geometry" />
        </mxCell>
        <mxCell id="3iOCTII06yZ_4ir-GyjH-243" value="Vendor Provided" style="text;strokeColor=none;fillColor=none;align=left;verticalAlign=middle;spacingLeft=4;spacingRight=4;overflow=hidden;points=[[0,0.5],[1,0.5]];portConstraint=eastwest;rotatable=0;whiteSpace=wrap;html=1;" vertex="1" parent="3iOCTII06yZ_4ir-GyjH-240">
          <mxGeometry y="60" width="215" height="30" as="geometry" />
        </mxCell>
        <mxCell id="3iOCTII06yZ_4ir-GyjH-244" value="" style="image;points=[];aspect=fixed;html=1;align=center;shadow=0;dashed=0;image=img/lib/allied_telesis/security/Router_VPN.svg;" vertex="1" parent="1">
          <mxGeometry x="470.00000000000006" y="-280" width="84.55" height="60" as="geometry" />
        </mxCell>
        <mxCell id="3iOCTII06yZ_4ir-GyjH-246" value="Nokia" style="swimlane;fontStyle=0;childLayout=stackLayout;horizontal=1;startSize=30;horizontalStack=0;resizeParent=1;resizeParentMax=0;resizeLast=0;collapsible=1;marginBottom=0;whiteSpace=wrap;html=1;" vertex="1" parent="1">
          <mxGeometry x="640" y="-290" width="215" height="90" as="geometry" />
        </mxCell>
        <mxCell id="3iOCTII06yZ_4ir-GyjH-248" value="Item 2" style="text;strokeColor=none;fillColor=none;align=left;verticalAlign=middle;spacingLeft=4;spacingRight=4;overflow=hidden;points=[[0,0.5],[1,0.5]];portConstraint=eastwest;rotatable=0;whiteSpace=wrap;html=1;" vertex="1" parent="3iOCTII06yZ_4ir-GyjH-246">
          <mxGeometry y="30" width="215" height="30" as="geometry" />
        </mxCell>
        <mxCell id="3iOCTII06yZ_4ir-GyjH-249" value="Item 3" style="text;strokeColor=none;fillColor=none;align=left;verticalAlign=middle;spacingLeft=4;spacingRight=4;overflow=hidden;points=[[0,0.5],[1,0.5]];portConstraint=eastwest;rotatable=0;whiteSpace=wrap;html=1;" vertex="1" parent="3iOCTII06yZ_4ir-GyjH-246">
          <mxGeometry y="60" width="215" height="30" as="geometry" />
        </mxCell>
        <mxCell id="3iOCTII06yZ_4ir-GyjH-251" value="" style="image;html=1;image=img/lib/clip_art/networking/Wireless_Router_N_128x128.png" vertex="1" parent="1">
          <mxGeometry x="421.5" y="-170" width="150" height="193" as="geometry" />
        </mxCell>
        <mxCell id="3iOCTII06yZ_4ir-GyjH-252" value="Fortinet Firewall" style="swimlane;fontStyle=0;childLayout=stackLayout;horizontal=1;startSize=30;horizontalStack=0;resizeParent=1;resizeParentMax=0;resizeLast=0;collapsible=1;marginBottom=0;whiteSpace=wrap;html=1;" vertex="1" parent="1">
          <mxGeometry x="640" y="-120" width="215" height="120" as="geometry" />
        </mxCell>
        <mxCell id="3iOCTII06yZ_4ir-GyjH-253" value="Provided by Teksavvy" style="text;strokeColor=none;fillColor=none;align=left;verticalAlign=middle;spacingLeft=4;spacingRight=4;overflow=hidden;points=[[0,0.5],[1,0.5]];portConstraint=eastwest;rotatable=0;whiteSpace=wrap;html=1;" vertex="1" parent="3iOCTII06yZ_4ir-GyjH-252">
          <mxGeometry y="30" width="215" height="30" as="geometry" />
        </mxCell>
        <mxCell id="3iOCTII06yZ_4ir-GyjH-254" value="Item 2" style="text;strokeColor=none;fillColor=none;align=left;verticalAlign=middle;spacingLeft=4;spacingRight=4;overflow=hidden;points=[[0,0.5],[1,0.5]];portConstraint=eastwest;rotatable=0;whiteSpace=wrap;html=1;" vertex="1" parent="3iOCTII06yZ_4ir-GyjH-252">
          <mxGeometry y="60" width="215" height="30" as="geometry" />
        </mxCell>
        <mxCell id="3iOCTII06yZ_4ir-GyjH-255" value="Item 3" style="text;strokeColor=none;fillColor=none;align=left;verticalAlign=middle;spacingLeft=4;spacingRight=4;overflow=hidden;points=[[0,0.5],[1,0.5]];portConstraint=eastwest;rotatable=0;whiteSpace=wrap;html=1;" vertex="1" parent="3iOCTII06yZ_4ir-GyjH-252">
          <mxGeometry y="90" width="215" height="30" as="geometry" />
        </mxCell>
        <mxCell id="3iOCTII06yZ_4ir-GyjH-256" value="" style="rounded=1;whiteSpace=wrap;html=1;" vertex="1" parent="1">
          <mxGeometry x="900" y="-110" width="670" height="100" as="geometry" />
        </mxCell>
        <mxCell id="3iOCTII06yZ_4ir-GyjH-257" value="&lt;b&gt;&lt;font style=&quot;font-size: 18px;&quot;&gt;FORTINET&lt;/font&gt;&lt;/b&gt;&lt;div&gt;FortiGate 40F&lt;/div&gt;" style="rounded=1;whiteSpace=wrap;html=1;" vertex="1" parent="1">
          <mxGeometry x="910" y="-100" width="250" height="80" as="geometry" />
        </mxCell>
        <mxCell id="3iOCTII06yZ_4ir-GyjH-259" value="" style="whiteSpace=wrap;html=1;aspect=fixed;" vertex="1" parent="1">
          <mxGeometry x="1190" y="-75" width="40" height="40" as="geometry" />
        </mxCell>
        <mxCell id="3iOCTII06yZ_4ir-GyjH-262" value="" style="whiteSpace=wrap;html=1;aspect=fixed;" vertex="1" parent="1">
          <mxGeometry x="1242" y="-75" width="40" height="40" as="geometry" />
        </mxCell>
        <mxCell id="3iOCTII06yZ_4ir-GyjH-263" value="" style="whiteSpace=wrap;html=1;aspect=fixed;" vertex="1" parent="1">
          <mxGeometry x="1293" y="-75" width="40" height="40" as="geometry" />
        </mxCell>
        <mxCell id="3iOCTII06yZ_4ir-GyjH-264" value="" style="whiteSpace=wrap;html=1;aspect=fixed;" vertex="1" parent="1">
          <mxGeometry x="1345" y="-75" width="40" height="40" as="geometry" />
        </mxCell>
        <mxCell id="3iOCTII06yZ_4ir-GyjH-265" value="" style="whiteSpace=wrap;html=1;aspect=fixed;" vertex="1" parent="1">
          <mxGeometry x="1397" y="-75" width="40" height="40" as="geometry" />
        </mxCell>
        <mxCell id="3iOCTII06yZ_4ir-GyjH-266" value="" style="whiteSpace=wrap;html=1;aspect=fixed;" vertex="1" parent="1">
          <mxGeometry x="1448" y="-75" width="40" height="40" as="geometry" />
        </mxCell>
        <mxCell id="3iOCTII06yZ_4ir-GyjH-267" value="" style="whiteSpace=wrap;html=1;aspect=fixed;" vertex="1" parent="1">
          <mxGeometry x="1500" y="-75" width="40" height="40" as="geometry" />
        </mxCell>
        <mxCell id="3iOCTII06yZ_4ir-GyjH-268" value="1" style="text;html=1;align=center;verticalAlign=middle;whiteSpace=wrap;rounded=0;" vertex="1" parent="1">
          <mxGeometry x="1180" y="-100" width="60" height="30" as="geometry" />
        </mxCell>
        <mxCell id="3iOCTII06yZ_4ir-GyjH-269" value="2" style="text;html=1;align=center;verticalAlign=middle;whiteSpace=wrap;rounded=0;" vertex="1" parent="1">
          <mxGeometry x="1232" y="-97.75" width="60" height="30" as="geometry" />
        </mxCell>
        <mxCell id="3iOCTII06yZ_4ir-GyjH-270" value="3" style="text;html=1;align=center;verticalAlign=middle;whiteSpace=wrap;rounded=0;" vertex="1" parent="1">
          <mxGeometry x="1283" y="-97.75" width="60" height="30" as="geometry" />
        </mxCell>
        <mxCell id="3iOCTII06yZ_4ir-GyjH-271" value="A" style="text;html=1;align=center;verticalAlign=middle;whiteSpace=wrap;rounded=0;" vertex="1" parent="1">
          <mxGeometry x="1336.5" y="-97.75" width="57" height="28.5" as="geometry" />
        </mxCell>
        <mxCell id="3iOCTII06yZ_4ir-GyjH-272" value="WAN" style="text;html=1;align=center;verticalAlign=middle;whiteSpace=wrap;rounded=0;" vertex="1" parent="1">
          <mxGeometry x="1387" y="-100" width="60" height="30" as="geometry" />
        </mxCell>
        <mxCell id="3iOCTII06yZ_4ir-GyjH-273" value="CONS" style="text;html=1;align=center;verticalAlign=middle;whiteSpace=wrap;rounded=0;" vertex="1" parent="1">
          <mxGeometry x="1438" y="-100" width="60" height="30" as="geometry" />
        </mxCell>
        <mxCell id="3iOCTII06yZ_4ir-GyjH-274" value="USB" style="text;html=1;align=center;verticalAlign=middle;whiteSpace=wrap;rounded=0;" vertex="1" parent="1">
          <mxGeometry x="1490" y="-100" width="60" height="30" as="geometry" />
        </mxCell>
      </root>
    </mxGraphModel>
  </diagram>
</mxfile>
